<svg width="305" height="88" viewBox="0 0 305 88" fill="none" xmlns="http://www.w3.org/2000/svg">
<path d="M61.262 86.0795V53.3845C61.262 47.5065 59.921 41.6275 51.979 41.6275C45.688 41.6275 39.913 47.4025 39.913 53.3845V86.0795H30.631V53.3845C30.631 47.5065 29.29 41.6275 21.349 41.6275C15.058 41.6275 9.282 47.4025 9.282 53.3845V86.0795H0V34.5115H8.973V41.6275H9.073C10.826 38.8425 16.292 33.1705 24.336 33.1705C32.38 33.1705 36.406 36.6795 38.572 42.3495C40.532 39.3585 46.617 33.1705 54.764 33.1705C66.315 33.1705 70.543 39.8705 70.543 50.4975V86.0795H61.262Z" fill="#5A9AE4"/>
<path d="M89.307 86.0795V34.5115H98.589V86.0795H89.307Z" fill="#5A9AE4"/>
<path d="M150.153 86.0795L149.534 78.9635H149.434C146.546 83.1925 142.318 87.4205 133.757 87.4205C119.216 87.4205 114.575 75.6625 114.575 60.5025C114.575 45.8575 119.628 33.1715 134.583 33.1715C143.04 33.1715 147.268 37.8125 149.125 40.9065H149.225V13.3685H158.507V71.9485C158.507 77.9315 158.713 83.8095 158.816 86.0785L150.153 86.0795ZM149.225 55.8615C149.225 47.1975 143.037 41.1125 136.849 41.1125C127.876 41.1125 124.163 48.4355 124.163 57.4125V63.8125C124.163 73.5065 129.01 79.4895 136.436 79.4895C143.552 79.4895 149.225 72.7895 149.225 65.3595V55.8615Z" fill="#5A9AE4"/>
<path d="M210.275 86.0795L209.656 78.9635H209.556C206.668 83.1925 202.44 87.4205 193.88 87.4205C179.338 87.4205 174.697 75.6625 174.697 60.5025C174.697 45.8575 179.75 33.1715 194.705 33.1715C203.162 33.1715 207.391 37.8125 209.247 40.9065H209.347V13.3685H218.629V71.9485C218.629 77.9315 218.835 83.8095 218.938 86.0785L210.275 86.0795ZM209.347 55.8615C209.347 47.1975 203.159 41.1125 196.971 41.1125C187.998 41.1125 184.285 48.4355 184.285 57.4125V63.8125C184.285 73.5065 189.132 79.4895 196.559 79.4895C203.675 79.4895 209.347 72.7895 209.347 65.3595V55.8615Z" fill="#5A9AE4"/>
<path d="M237.91 86.0795V13.3685H247.192V86.0795H237.91Z" fill="#5A9AE4"/>
<path d="M304.532 62.5635H272.045V64.5235C272.045 72.2585 275.654 79.5805 286.175 79.5805C291.607 79.5563 296.952 78.2113 301.748 75.6615L302.16 83.5005C298.138 85.8725 292.16 87.4195 285.246 87.4195C267.2 87.4195 262.66 76.1795 262.66 60.3985C262.66 44.4125 269.26 33.1705 285.143 33.1705C296.075 33.1705 304.743 38.6365 304.743 56.7885C304.738 57.6135 304.636 61.0165 304.532 62.5635ZM284.937 40.2865C275.861 40.2865 271.937 48.1255 271.937 55.7575H295.865C295.869 47.8155 294.115 40.2865 284.937 40.2865Z" fill="#5A9AE4"/>
<path d="M93.948 20.7495C97.1716 20.7495 99.785 18.1362 99.785 14.9125C99.785 11.6888 97.1716 9.0755 93.948 9.0755C90.7243 9.0755 88.111 11.6888 88.111 14.9125C88.111 18.1362 90.7243 20.7495 93.948 20.7495Z" fill="#5A9AE4"/>
<path d="M108.281 13.4585H105.357C105.031 10.9322 103.877 8.5851 102.075 6.78416C100.274 4.98322 97.9264 3.8299 95.4 3.5045V0.579498H92.494V3.5045C89.968 3.83019 87.6211 4.98367 85.8201 6.78462C84.0192 8.58557 82.8657 10.9325 82.54 13.4585H79.615V16.3665H82.54C82.8658 18.8926 84.0193 21.2395 85.8202 23.0406C87.6211 24.8417 89.968 25.9954 92.494 26.3215V29.2455H95.4V26.3215C97.9261 25.9953 100.273 24.8416 102.074 23.0405C103.875 21.2395 105.029 18.8926 105.355 16.3665H108.279L108.281 13.4585ZM93.948 23.5055C92.2485 23.5055 90.5871 23.0015 89.174 22.0573C87.7609 21.1131 86.6595 19.7711 86.0091 18.2009C85.3587 16.6307 85.1885 14.903 85.5201 13.2361C85.8517 11.5692 86.6701 10.0381 87.8718 8.83633C89.0736 7.63458 90.6047 6.81617 92.2716 6.48461C93.9385 6.15305 95.6662 6.32322 97.2364 6.9736C98.8066 7.62399 100.149 8.72537 101.093 10.1385C102.037 11.5516 102.541 13.213 102.541 14.9125C102.539 17.1909 101.633 19.3755 100.022 20.9866C98.411 22.5977 96.2264 23.5036 93.948 23.5055Z" fill="#5A9AE4"/>
</svg>
